# xmcd CD database file
#
# Track frame offsets:
#	187
#	22790
#	38677
#	55392
#	77570
#	95327
#	117222
#	138657
#	151097
#	166237
#	189950
#	213192
#	232345
#
# Disc length: 3359 seconds
#
# Revision: 3
# Processed by: cddbd v1.5.1PL0 Copyright (c) Steve Scherf et al.
# Submitted via: CDex 1.51
#
DISCID=9c0d1d0d
DTITLE=MINA AOE - The shadow of Love
DYEAR=1993
DGENRE=Jazz
TTITLE0=Cry me a river
TTITLE1=It's only a paper moon
TTITLE2=The man I love
TTITLE3=Love letters
TTITLE4=Lover, come back to me
TTITLE5=Bourbon street blues -伊勢佐木町　ブルース-
TTITLE6=Harbour lights
TTITLE7=When the band gegin to play
TTITLE8=What a difference a day made
TTITLE9=Green eyes
TTITLE10=Gray shade of love
TTITLE11=Sentimental journey
TTITLE12=Honmoku blues -本牧　ブルース-
EXTD=YEAR: 1993
EXTT0=
EXTT1=
EXTT2=
EXTT3=
EXTT4=
EXTT5=
EXTT6=
EXTT7=
EXTT8=
EXTT9=
EXTT10=
EXTT11=
EXTT12=
PLAYORDER=
